<?xml version="1.0" encoding="UTF-8" standalone="no"?>
<!DOCTYPE svg PUBLIC "-//W3C//DTD SVG 1.1//EN" "http://www.w3.org/Graphics/SVG/1.1/DTD/svg11.dtd">
<svg xmlns="http://www.w3.org/2000/svg" version="1.1" viewBox="0.00 0.00 1024.00 222.00">
<path fill="#060708" d="
  M 356.70 7.13
  A 0.41 0.41 0.0 0 1 357.11 7.54
  Q 356.97 32.47 357.01 155.75
  Q 357.01 159.61 360.37 160.83
  Q 362.67 161.66 370.48 163.02
  A 1.31 1.30 5.0 0 1 371.56 164.30
  L 371.56 168.23
  A 1.14 1.14 0.0 0 1 370.42 169.37
  L 315.93 169.37
  A 1.09 1.09 0.0 0 1 314.84 168.28
  L 314.84 164.25
  A 1.45 1.45 0.0 0 1 316.07 162.82
  Q 319.92 162.25 325.12 160.90
  C 328.34 160.07 328.97 158.16 328.97 154.83
  Q 329.00 61.34 328.89 33.55
  Q 328.87 29.20 324.50 28.24
  Q 319.83 27.21 314.40 27.10
  A 0.54 0.54 0.0 0 1 313.87 26.56
  L 313.87 21.46
  A 0.88 0.87 -9.3 0 1 314.47 20.63
  Q 350.82 8.43 353.06 7.57
  Q 354.25 7.11 356.70 7.13
  Z"
/>
<path fill="#060708" d="
  M 934.96 76.69
  A 0.39 0.39 0.0 0 0 935.63 76.95
  Q 945.23 66.76 956.85 62.61
  C 965.70 59.44 978.10 59.20 986.86 63.15
  Q 998.67 68.47 1003.44 81.37
  Q 1003.81 82.37 1005.21 90.60
  Q 1005.94 94.91 1005.97 99.96
  Q 1006.14 136.75 1005.99 155.25
  C 1005.96 158.36 1006.99 160.26 1010.12 161.16
  Q 1014.91 162.55 1019.10 163.13
  A 1.12 1.11 4.2 0 1 1020.06 164.23
  L 1020.06 168.17
  A 1.19 1.19 0.0 0 1 1018.87 169.36
  L 966.17 169.36
  A 0.83 0.82 -90.0 0 1 965.35 168.53
  L 965.35 164.14
  A 1.15 1.14 85.6 0 1 966.32 163.00
  Q 969.30 162.54 973.53 161.29
  C 976.98 160.27 977.42 158.48 977.41 154.85
  Q 977.30 129.23 977.38 96.01
  Q 977.39 92.03 975.84 87.33
  C 970.91 72.47 954.23 71.73 943.30 79.87
  Q 939.14 82.97 935.61 87.01
  A 2.89 2.89 0.0 0 0 934.89 88.97
  Q 935.22 123.11 934.91 152.24
  C 934.86 157.32 934.41 160.49 939.69 161.58
  Q 943.53 162.38 946.78 162.83
  A 1.23 1.23 0.0 0 1 947.85 164.05
  L 947.85 168.16
  A 1.22 1.22 0.0 0 1 946.63 169.38
  L 893.40 169.38
  A 1.26 1.25 -0.0 0 1 892.14 168.13
  L 892.14 164.24
  A 1.29 1.29 0.0 0 1 893.25 162.96
  Q 902.72 161.62 904.62 159.88
  A 4.46 4.44 68.8 0 0 906.06 156.60
  Q 905.91 79.25 905.93 34.31
  Q 905.94 29.27 901.29 28.30
  Q 897.37 27.48 891.74 27.00
  A 0.78 0.77 2.4 0 1 891.03 26.23
  L 891.03 21.54
  A 0.87 0.86 78.9 0 1 891.56 20.74
  Q 892.90 20.16 894.81 19.54
  Q 910.42 14.46 927.89 8.36
  Q 931.35 7.15 934.36 7.34
  A 0.64 0.64 0.0 0 1 934.96 7.98
  L 934.96 76.69
  Z"
/>
<ellipse fill="#5a8ac7" cx="0.00" cy="0.00" transform="translate(525.71,26.41) rotate(-163.0)" rx="16.61" ry="16.41"/>
<path fill="#060708" d="
  M 741.92 30.30
  C 753.83 30.22 765.20 34.11 774.45 41.54
  Q 793.10 56.51 794.86 80.01
  C 796.14 97.01 789.59 111.37 778.14 123.89
  Q 776.02 126.20 773.39 130.27
  C 770.01 135.49 769.40 140.63 768.56 147.60
  Q 768.19 150.69 765.00 150.70
  Q 759.71 150.72 742.74 150.84
  Q 725.78 150.96 720.49 151.00
  Q 717.30 151.04 716.88 147.95
  C 715.95 140.99 715.27 135.86 711.82 130.69
  Q 709.13 126.66 706.98 124.38
  C 695.36 112.01 688.62 97.74 689.66 80.73
  Q 691.10 57.21 709.55 41.98
  C 718.70 34.43 730.02 30.38 741.92 30.30
  Z
  M 746.03 108.88
  L 746.03 122.63
  A 1.99 1.97 -61.3 0 0 746.33 123.68
  L 747.67 125.81
  A 2.70 2.68 29.4 0 1 748.07 127.22
  L 748.07 141.03
  A 1.03 1.03 0.0 0 0 749.10 142.06
  L 758.44 142.06
  A 1.43 1.43 0.0 0 0 759.86 140.81
  Q 761.26 130.04 767.97 121.45
  Q 768.52 120.74 774.58 113.35
  Q 788.90 95.86 783.63 72.96
  Q 782.73 69.02 781.35 66.40
  C 779.12 62.17 776.43 57.29 772.93 53.63
  Q 760.50 40.64 743.08 40.25
  C 719.25 39.72 699.98 59.57 699.58 82.95
  Q 699.34 96.49 706.05 107.66
  Q 707.71 110.43 712.66 116.16
  C 719.22 123.77 724.04 130.87 725.62 140.81
  A 1.38 1.37 -4.4 0 0 726.98 141.97
  L 736.31 141.97
  A 0.96 0.95 0.3 0 0 737.27 141.03
  L 737.42 127.46
  A 1.91 1.89 57.6 0 1 737.57 126.77
  L 738.72 124.10
  A 3.82 3.77 -33.7 0 0 739.03 122.60
  L 739.03 108.73
  A 0.91 0.91 0.0 0 0 738.32 107.84
  C 723.41 104.47 718.02 92.40 720.56 78.02
  Q 721.67 71.74 727.13 66.44
  C 734.60 59.19 747.15 58.53 755.42 64.78
  Q 764.68 71.77 763.53 83.54
  C 763.15 87.35 761.29 88.24 757.67 88.17
  Q 753.65 88.10 731.89 88.17
  A 0.80 0.80 0.0 0 0 731.11 89.15
  C 733.85 101.19 745.80 101.64 754.66 95.99
  C 757.42 94.23 760.12 94.01 761.90 96.75
  A 2.41 2.39 -64.6 0 1 762.27 97.80
  C 763.03 104.22 750.98 107.60 746.52 108.31
  A 0.58 0.58 0.0 0 0 746.03 108.88
  Z
  M 731.33 79.77
  L 753.11 79.69
  A 0.01 0.01 0.0 0 0 753.12 79.68
  L 753.12 79.63
  A 10.76 10.38 -0.2 0 0 742.32 69.29
  L 742.04 69.29
  A 10.76 10.38 -0.2 0 0 731.32 79.71
  L 731.32 79.76
  A 0.01 0.01 0.0 0 0 731.33 79.77
  Z"
/>
<path fill="#5a8ac7" d="
  M 553.22 169.12
  L 501.01 169.12
  A 1.56 1.55 -10.8 0 1 499.56 168.14
  Q 498.99 166.72 499.26 163.82
  A 0.93 0.93 0.0 0 1 499.96 163.00
  C 503.12 162.26 509.87 160.98 511.58 158.90
  A 2.87 2.80 74.4 0 0 512.11 157.93
  Q 512.88 155.46 512.89 151.27
  Q 512.94 93.37 512.76 83.02
  C 512.67 77.68 503.55 76.87 499.60 76.76
  A 1.38 1.38 0.0 0 1 498.26 75.38
  L 498.26 72.42
  A 2.02 2.02 0.0 0 1 499.79 70.46
  Q 517.72 66.03 535.40 60.09
  Q 536.58 59.69 539.16 59.94
  A 0.75 0.73 -2.0 0 1 539.81 60.53
  Q 540.05 61.80 540.07 64.26
  Q 540.36 95.18 540.41 154.52
  Q 540.42 159.96 545.53 161.22
  Q 551.48 162.69 553.19 162.92
  A 1.18 1.17 3.9 0 1 554.21 164.08
  L 554.21 168.14
  A 0.99 0.98 -0.0 0 1 553.22 169.12
  Z"
/>
<path fill="#060708" d="
  M 804.97 161.44
  L 803.67 135.49
  A 0.91 0.91 0.0 0 1 804.53 134.53
  L 810.89 134.21
  A 0.81 0.80 77.9 0 1 811.68 134.73
  Q 813.55 139.61 815.98 144.55
  C 823.26 159.27 836.39 166.96 853.14 162.91
  C 866.34 159.72 869.85 143.95 858.33 136.17
  Q 854.52 133.60 849.54 131.73
  Q 847.42 130.94 822.69 121.09
  Q 819.74 119.92 815.12 116.13
  C 807.12 109.57 803.83 99.05 805.25 89.23
  Q 807.40 74.39 819.86 66.82
  Q 829.85 60.75 843.01 60.02
  Q 862.54 58.95 880.69 67.05
  A 1.07 1.05 11.1 0 1 881.31 67.96
  L 882.50 91.68
  A 0.89 0.89 0.0 0 1 881.66 92.62
  L 874.14 92.99
  A 0.84 0.84 0.0 0 1 873.28 92.37
  C 871.93 87.47 869.06 80.68 866.01 76.85
  Q 857.70 66.37 842.95 67.67
  C 836.73 68.21 830.79 72.24 828.67 78.18
  C 825.01 88.47 832.60 94.94 841.81 98.39
  Q 850.96 101.82 863.89 107.35
  C 877.81 113.31 889.65 122.78 888.51 139.30
  C 886.88 162.77 866.03 171.29 845.47 171.38
  Q 824.57 171.47 805.48 162.22
  A 0.93 0.92 -78.4 0 1 804.97 161.44
  Z"
/>
<path fill="#060708" d="
  M 96.25 108.49
  L 31.11 108.49
  A 0.45 0.44 -89.3 0 0 30.67 108.93
  C 30.43 120.43 33.21 132.86 40.62 141.56
  C 51.57 154.39 68.59 156.31 83.26 148.26
  Q 85.97 146.77 92.67 140.30
  A 0.90 0.89 -50.5 0 1 93.77 140.19
  L 98.69 143.37
  A 0.71 0.70 -58.0 0 1 98.91 144.33
  Q 90.65 157.83 77.00 165.43
  Q 70.53 169.04 64.35 170.16
  C 46.19 173.45 29.24 168.52 17.00 154.74
  C 5.25 141.49 1.78 122.31 4.15 104.59
  C 6.45 87.40 17.11 71.19 33.29 64.17
  Q 43.81 59.61 55.56 59.95
  C 82.49 60.75 96.93 82.61 97.01 107.73
  A 0.76 0.76 0.0 0 1 96.25 108.49
  Z
  M 31.19 99.99
  L 68.86 99.99
  A 0.77 0.77 0.0 0 0 69.63 99.27
  C 70.20 89.47 68.75 73.50 58.32 69.19
  C 51.22 66.27 44.57 69.51 39.71 74.47
  C 33.78 80.52 31.21 91.29 30.79 99.57
  A 0.40 0.40 0.0 0 0 31.19 99.99
  Z"
/>
<path fill="#060708" d="
  M 237.90 75.23
  A 0.33 0.33 0.0 0 0 238.48 75.39
  C 248.22 63.98 261.46 58.32 276.77 60.46
  C 290.41 62.37 300.75 71.53 306.88 83.44
  C 317.09 103.29 315.62 128.04 305.88 147.12
  C 301.74 155.24 294.05 163.05 285.36 166.99
  Q 267.40 175.13 248.31 168.94
  Q 243.90 167.51 240.21 164.56
  A 0.68 0.68 0.0 0 0 239.10 165.09
  Q 239.02 181.16 239.06 203.84
  Q 239.07 204.71 239.95 206.88
  A 2.01 1.90 9.6 0 0 240.54 207.66
  Q 242.40 209.12 245.39 209.86
  Q 253.71 211.91 254.70 211.96
  A 0.68 0.67 86.3 0 1 255.34 212.53
  Q 255.85 215.62 255.28 217.94
  A 0.80 0.79 -83.0 0 1 254.51 218.55
  L 197.96 218.55
  A 0.92 0.91 -0.0 0 1 197.04 217.64
  L 197.04 213.06
  A 0.98 0.98 0.0 0 1 197.77 212.11
  Q 204.25 210.44 206.28 209.80
  C 210.70 208.41 211.25 206.83 211.24 201.98
  Q 211.13 151.81 211.21 87.26
  Q 211.21 84.10 210.41 81.65
  A 3.56 3.55 -4.0 0 0 207.64 79.25
  L 197.97 77.56
  A 0.82 0.82 0.0 0 1 197.29 76.75
  L 197.29 72.22
  A 0.89 0.87 -8.5 0 1 197.92 71.38
  Q 214.68 66.29 229.80 61.06
  Q 232.16 60.24 234.59 60.39
  A 1.24 1.24 0.0 0 1 235.74 61.43
  L 237.90 75.23
  Z
  M 239.29 83.89
  A 2.52 2.44 59.1 0 0 239.03 85.00
  Q 238.89 109.34 238.98 140.98
  Q 239.00 147.15 239.85 149.43
  C 243.99 160.46 255.89 164.64 266.70 161.64
  C 278.74 158.29 283.02 142.95 284.23 132.27
  C 285.84 118.15 285.45 103.78 280.81 91.51
  C 276.99 81.40 269.16 74.62 258.21 74.59
  Q 252.84 74.57 248.52 76.63
  C 244.95 78.34 240.80 80.84 239.29 83.89
  Z"
/>
<path fill="#5a8ac7" d="
  M 445.06 155.87
  C 435.32 165.49 425.50 171.19 411.52 171.00
  C 398.11 170.81 384.97 163.66 381.91 149.55
  C 378.31 132.93 389.70 121.42 404.11 115.60
  Q 409.61 113.38 416.54 111.57
  Q 429.71 108.13 444.02 105.43
  A 0.97 0.96 -4.1 0 0 444.81 104.52
  Q 445.12 96.89 444.61 88.22
  C 444.03 78.40 441.31 70.82 430.54 68.11
  C 422.56 66.10 413.91 69.20 411.53 77.76
  C 410.25 82.37 409.38 91.63 403.49 95.16
  C 390.79 102.79 379.45 90.17 387.92 77.91
  C 398.68 62.35 421.16 58.14 438.52 60.69
  C 446.45 61.85 455.61 64.83 461.29 70.51
  Q 468.18 77.39 470.60 86.43
  Q 471.49 89.74 471.96 100.51
  Q 472.25 107.25 472.15 146.53
  C 472.13 152.13 473.22 158.83 480.04 158.92
  C 482.08 158.95 485.47 157.74 488.21 156.87
  A 0.81 0.81 0.0 0 1 489.22 157.37
  L 490.68 161.38
  A 0.81 0.81 0.0 0 1 490.40 162.30
  C 480.50 169.75 466.86 173.46 455.37 168.39
  C 450.34 166.18 446.96 161.44 445.80 156.09
  A 0.44 0.44 0.0 0 0 445.06 155.87
  Z
  M 444.05 112.63
  Q 434.13 114.37 426.17 117.17
  C 413.04 121.78 405.71 132.45 409.70 146.72
  C 411.16 151.92 415.78 155.74 420.92 156.98
  Q 434.48 160.26 444.44 149.44
  A 1.91 1.91 0.0 0 0 444.95 148.14
  L 444.95 113.38
  A 0.77 0.76 -5.1 0 0 444.05 112.63
  Z"
/>
<path fill="#060708" d="
  M 603.11 76.63
  C 614.55 64.68 628.80 58.12 645.67 60.85
  C 665.87 64.12 673.40 80.26 673.39 99.50
  Q 673.38 107.05 673.38 155.47
  Q 673.38 159.14 676.81 160.62
  Q 679.41 161.73 687.08 162.77
  A 1.15 1.14 -86.3 0 1 688.07 163.91
  L 688.07 168.22
  A 1.15 1.14 90.0 0 1 686.93 169.37
  L 634.39 169.37
  A 0.83 0.82 -90.0 0 1 633.57 168.54
  L 633.57 164.18
  A 1.17 1.17 0.0 0 1 634.58 163.02
  Q 636.71 162.72 641.75 161.26
  C 645.14 160.29 645.66 158.63 645.64 155.15
  Q 645.53 133.39 645.61 95.33
  C 645.63 85.66 640.50 77.59 631.48 75.14
  C 620.55 72.16 611.11 77.85 604.08 85.72
  A 1.95 1.93 66.0 0 0 603.59 87.01
  Q 603.48 156.44 603.48 156.96
  Q 603.51 160.34 607.35 161.25
  Q 612.73 162.53 615.24 162.81
  A 1.23 1.22 -86.9 0 1 616.33 164.03
  L 616.33 168.19
  A 1.17 1.17 0.0 0 1 615.16 169.36
  L 563.48 169.36
  A 1.35 1.34 0.0 0 1 562.13 168.02
  L 562.13 164.59
  A 1.62 1.61 -4.6 0 1 563.49 163.00
  C 566.85 162.45 571.38 161.73 573.88 160.16
  A 3.91 3.91 0.0 0 0 575.71 156.85
  C 575.72 132.44 576.21 108.42 575.55 84.51
  C 575.38 78.30 566.67 78.19 562.39 78.05
  A 1.03 1.02 -89.1 0 1 561.40 77.02
  L 561.40 72.87
  A 1.58 1.57 82.3 0 1 562.55 71.35
  Q 580.69 66.22 594.65 61.13
  Q 596.60 60.42 599.62 60.61
  A 0.75 0.74 -2.4 0 1 600.31 61.24
  L 602.71 76.51
  A 0.24 0.23 -27.6 0 0 603.11 76.63
  Z"
/>
<path fill="#060708" d="
  M 143.01 127.19
  L 123.79 156.91
  A 2.28 2.28 0.0 0 0 124.11 159.77
  C 125.93 161.55 129.35 162.43 131.82 162.74
  A 1.44 1.42 2.4 0 1 133.06 164.08
  L 133.27 168.20
  A 1.10 1.09 -1.5 0 1 132.17 169.35
  L 101.93 169.35
  A 1.36 1.36 0.0 0 1 100.57 167.99
  L 100.57 164.03
  A 1.63 1.63 0.0 0 1 102.03 162.41
  Q 110.43 161.56 115.91 153.22
  Q 124.71 139.85 137.68 119.97
  A 1.53 1.51 45.9 0 0 137.70 118.35
  Q 129.20 104.39 119.49 89.25
  Q 114.76 81.87 112.61 77.90
  Q 108.90 71.06 101.19 69.27
  A 1.16 1.16 0.0 0 1 100.30 68.14
  L 100.30 63.13
  A 0.59 0.59 0.0 0 1 100.89 62.54
  L 143.95 62.54
  A 0.49 0.48 90.0 0 1 144.43 63.03
  L 144.43 67.66
  A 1.18 1.18 0.0 0 1 143.65 68.77
  L 139.18 70.40
  A 1.57 1.56 -21.7 0 0 138.27 72.50
  C 141.31 79.51 145.59 85.33 152.91 96.63
  A 0.59 0.59 0.0 0 0 153.89 96.63
  Q 161.22 85.47 166.91 75.70
  C 169.45 71.34 161.63 69.35 159.06 69.01
  A 0.86 0.85 -88.0 0 1 158.32 68.21
  L 158.07 63.28
  A 0.74 0.74 0.0 0 1 158.81 62.50
  L 190.18 62.50
  A 0.67 0.66 90.0 0 1 190.84 63.17
  L 190.84 68.62
  A 1.03 1.02 83.7 0 1 190.05 69.62
  C 184.83 70.82 180.02 72.25 177.02 76.77
  Q 176.73 77.20 159.18 103.87
  A 2.35 2.34 44.9 0 0 159.19 106.47
  Q 172.78 126.95 189.47 153.79
  Q 193.88 160.89 202.21 162.66
  A 1.06 1.06 0.0 0 1 203.05 163.70
  L 203.05 168.55
  A 0.82 0.82 0.0 0 1 202.23 169.37
  L 156.10 169.37
  A 1.23 1.23 0.0 0 1 154.87 168.14
  L 154.87 163.92
  A 1.46 1.46 0.0 0 1 156.14 162.47
  Q 158.90 162.10 162.13 160.48
  A 1.82 1.82 0.0 0 0 162.85 157.88
  L 143.60 127.19
  A 0.35 0.35 0.0 0 0 143.01 127.19
  Z"
/>
<path fill="#060708" d="
  M 765.02 155.51
  A 3.34 3.34 0.0 0 1 768.36 158.85
  L 768.33 173.39
  A 9.54 9.16 0.1 0 1 758.78 182.54
  L 726.44 182.48
  A 9.54 9.16 0.1 0 1 716.91 173.31
  L 716.94 158.77
  A 3.34 3.34 0.0 0 1 720.28 155.43
  L 765.02 155.51
  Z
  M 733.63 168.91
  A 3.97 3.97 0.0 0 0 729.66 164.94
  A 3.97 3.97 0.0 0 0 725.69 168.91
  A 3.97 3.97 0.0 0 0 729.66 172.88
  A 3.97 3.97 0.0 0 0 733.63 168.91
  Z
  M 746.76 168.96
  A 3.94 3.94 0.0 0 0 742.82 165.02
  A 3.94 3.94 0.0 0 0 738.88 168.96
  A 3.94 3.94 0.0 0 0 742.82 172.90
  A 3.94 3.94 0.0 0 0 746.76 168.96
  Z
  M 759.78 168.91
  A 3.92 3.92 0.0 0 0 755.86 164.99
  A 3.92 3.92 0.0 0 0 751.94 168.91
  A 3.92 3.92 0.0 0 0 755.86 172.83
  A 3.92 3.92 0.0 0 0 759.78 168.91
  Z"
/>
<path fill="#060708" d="
  M 742.58 187.10
  Q 754.85 187.09 755.02 187.09
  A 0.96 0.96 0.0 0 1 755.88 188.47
  C 753.38 193.64 748.26 197.30 742.60 197.31
  C 736.94 197.32 731.81 193.67 729.29 188.51
  A 0.96 0.96 0.0 0 1 730.14 187.12
  Q 730.31 187.12 742.58 187.10
  Z"
/>
</svg>
